# xmcd
#
# Track frame offsets:
#	150
#	17400
#	32925
#	53850
#	71850
#
# Disc length: 1196 seconds
#
# Revision: 1
# Processed by: cddbd v1.5.2PL0 Copyright (c) Steve Scherf et al.
# Submitted via: audiograbber 1.83.01
#
DISCID=3f04aa05
DTITLE=Caroline Savoie - Just Sayin'
DYEAR=2011
DGENRE=Pop
TTITLE0=The Way You Look Tonight
TTITLE1=Mine
TTITLE2=Little House
TTITLE3=Belief
TTITLE4=Start Again
EXTD=
EXTT0=
EXTT1=
EXTT2=
EXTT3=
EXTT4=
PLAYORDER=
